HIERARCHY
ROOT Hips
{
	OFFSET 0.00000 0.00000 0.00000
	CHANNELS 6 Xposition Yposition Zposition Zrotation Yrotation Xrotation 
	JOINT LHipJoint
	{
		OFFSET 0 0 0
		CHANNELS 3 Zrotation Yrotation Xrotation
		JOINT LeftUpLeg
		{
			OFFSET 1.34019 -1.87553 0.90315
			CHANNELS 3 Zrotation Yrotation Xrotation
			JOINT LeftLeg
			{
				OFFSET 2.55316 -7.01474 0.00000
				CHANNELS 3 Zrotation Yrotation Xrotation
				JOINT LeftFoot
				{
					OFFSET 2.64657 -7.27139 0.00000
					CHANNELS 3 Zrotation Yrotation Xrotation
					JOINT LeftToeBase
					{
						OFFSET 0.24207 -0.66507 2.14489
						CHANNELS 3 Zrotation Yrotation Xrotation
						End Site
						{
							OFFSET 0.00000 -0.00000 1.12451
						}
					}
				}
			}
		}
	}
	JOINT RHipJoint
	{
		OFFSET 0 0 0
		CHANNELS 3 Zrotation Yrotation Xrotation
		JOINT RightUpLeg
		{
			OFFSET -1.28320 -1.87553 0.90315
			CHANNELS 3 Zrotation Yrotation Xrotation
			JOINT RightLeg
			{
				OFFSET -2.60484 -7.15674 0.00000
				CHANNELS 3 Zrotation Yrotation Xrotation
				JOINT RightFoot
				{
					OFFSET -2.60296 -7.15159 0.00000
					CHANNELS 3 Zrotation Yrotation Xrotation
					JOINT RightToeBase
					{
						OFFSET -0.31082 -0.85398 2.28998
						CHANNELS 3 Zrotation Yrotation Xrotation
						End Site
						{
							OFFSET -0.00000 -0.00000 1.21611
						}
					}
				}
			}
		}
	}
	JOINT LowerBack
	{
		OFFSET 0 0 0
		CHANNELS 3 Zrotation Yrotation Xrotation
		JOINT Spine
		{
			OFFSET -0.00160 2.05581 -0.15156
			CHANNELS 3 Zrotation Yrotation Xrotation
			JOINT Spine1
			{
				OFFSET 0.04594 2.06326 -0.01617
				CHANNELS 3 Zrotation Yrotation Xrotation
				JOINT Neck
				{
					OFFSET 0 0 0
					CHANNELS 3 Zrotation Yrotation Xrotation
					JOINT Neck1
					{
						OFFSET 0.03753 1.73883 0.26751
						CHANNELS 3 Zrotation Yrotation Xrotation
						JOINT Head
						{
							OFFSET -0.09795 1.76129 -0.31794
							CHANNELS 3 Zrotation Yrotation Xrotation
							End Site
							{
								OFFSET -0.03611 1.79987 -0.13846
							}
						}
					}
				}
				JOINT LeftShoulder
				{
					OFFSET 0 0 0
					CHANNELS 3 Zrotation Yrotation Xrotation
					JOINT LeftArm
					{
						OFFSET 3.30667 1.29205 -0.22445
						CHANNELS 3 Zrotation Yrotation Xrotation
						JOINT LeftForeArm
						{
							OFFSET 4.92785 -0.00000 -0.00000
							CHANNELS 3 Zrotation Yrotation Xrotation
							JOINT LeftHand
							{
								OFFSET 3.44052 -0.00000 0.00000
								CHANNELS 3 Zrotation Yrotation Xrotation
								JOINT LeftFingerBase
								{
									OFFSET 0 0 0
									CHANNELS 3 Zrotation Yrotation Xrotation
									JOINT LeftHandIndex1
									{
										OFFSET 0.65433 -0.00000 0.00000
										CHANNELS 3 Zrotation Yrotation Xrotation
										End Site
										{
											OFFSET 0.52753 -0.00000 0.00000
										}
									}
								}
								JOINT LThumb
								{
									OFFSET 0 0 0
									CHANNELS 3 Zrotation Yrotation Xrotation
									End Site
									{
										OFFSET 0.53559 -0.00000 0.53559
									}
								}
							}
						}
					}
				}
				JOINT RightShoulder
				{
					OFFSET 0 0 0
					CHANNELS 3 Zrotation Yrotation Xrotation
					JOINT RightArm
					{
						OFFSET -3.20032 1.49783 -0.27688
						CHANNELS 3 Zrotation Yrotation Xrotation
						JOINT RightForeArm
						{
							OFFSET -5.09181 -0.00000 -0.00000
							CHANNELS 3 Zrotation Yrotation Xrotation
							JOINT RightHand
							{
								OFFSET -3.49865 -0.00000 -0.00000
								CHANNELS 3 Zrotation Yrotation Xrotation
								JOINT RightFingerBase
								{
									OFFSET 0 0 0
									CHANNELS 3 Zrotation Yrotation Xrotation
									JOINT RightHandIndex1
									{
										OFFSET -0.66641 -0.00000 0.00000
										CHANNELS 3 Zrotation Yrotation Xrotation
										End Site
										{
											OFFSET -0.53728 -0.00000 0.00000
										}
									}
								}
								JOINT RThumb
								{
									OFFSET 0 0 0
									CHANNELS 3 Zrotation Yrotation Xrotation
									End Site
									{
										OFFSET -0.54548 -0.00000 0.54548
									}
								}
							}
						}
					}
				}
			}
		}
	}
}
MOTION
Frames: 10
Frame Time: .0083333
0.5139 17.9198 3.5409 -9.6128 -10.2777 3.0753 0.0000 0.0000 0.0000 1.6222 -8.1541 -31.4114 1.3518 7.3602 20.7871 -1.1618 20.1423 -15.7964 0.6040 -4.9747 -13.8365 0.0000 0.0000 0.0000 33.4661 0.4122 11.8654 -0.2737 -3.3653 9.2976 -0.0562 -8.8314 -13.5784 -0.1255 2.2835 -6.2899 6.4468 -1.8717 2.3857 5.0149 -2.2529 -0.1499 1.6477 -1.1642 -1.5406 6.5042 0.8613 -12.3716 -6.7166 1.2386 20.8242 -3.2345 0.3892 8.5942 0.0000 0.0000 0.0000 -85.0323 -1.4445 18.6588 15.5751 -24.9412 -3.4648 -0.0000 0.0000 -4.2949 13.0245 -2.7274 -0.6306 -7.1250 0.0000 -0.0000 -10.3628 27.1394 4.5644 0.0000 0.0000 0.0000 84.0564 -12.9177 12.9400 -15.4638 24.7883 -3.4181 0.0000 -0.0000 -6.6126 -16.5333 -3.6309 1.0770 7.1250 -0.0000 -0.0000 8.2473 -33.6815 2.3094
0.5322 17.9114 3.6087 -9.6849 -10.4487 3.1551 0.0000 0.0000 0.0000 1.6138 -8.1432 -31.2490 1.3475 7.3490 20.7535 -1.1607 20.1392 -15.8080 0.6113 -5.0044 -13.9211 0.0000 0.0000 0.0000 33.3847 0.3850 11.9998 -0.2781 -3.3917 9.3712 -0.0713 -8.6599 -13.6074 -0.1379 2.3935 -6.5944 6.5306 -1.8727 2.3547 5.0421 -2.2557 -0.1434 1.6284 -1.1659 -1.5188 6.5361 0.8877 -12.3640 -6.7574 1.2752 20.7561 -3.2484 0.4048 8.5728 0.0000 0.0000 0.0000 -85.1508 -1.3244 18.2608 15.2547 -24.4998 -3.3309 -0.0000 0.0000 -3.8544 13.0536 -2.8172 -0.6529 -7.1250 0.0000 -0.0000 -10.3331 27.0486 4.5734 0.0000 0.0000 0.0000 84.0265 -12.9427 12.9052 -15.4433 24.7600 -3.4094 0.0000 -0.0000 -6.6478 -16.5534 -3.6571 1.0861 7.1250 -0.0000 -0.0000 8.2340 -33.7092 2.3000
0.5509 17.9036 3.6780 -9.7040 -10.6151 3.2292 0.0000 0.0000 0.0000 1.5462 -8.1639 -31.0473 1.3408 7.3316 20.7014 -1.1604 20.1393 -15.8152 0.6189 -5.0345 -14.0070 0.0000 0.0000 0.0000 33.2444 0.3613 12.1099 -0.2855 -3.4363 9.4959 -0.0887 -8.4800 -13.6664 -0.1509 2.5030 -6.8980 6.5564 -1.8723 2.3225 5.0565 -2.2578 -0.1456 1.6280 -1.1669 -1.5034 6.5422 0.9032 -12.3559 -6.7751 1.2971 20.6871 -3.2516 0.4138 8.5497 0.0000 0.0000 0.0000 -85.2762 -1.1903 17.8544 14.9485 -24.0743 -3.2049 -0.0000 0.0000 -3.4432 13.0564 -2.8165 -0.6529 -7.1250 0.0000 -0.0000 -10.3309 27.0493 4.5722 0.0000 0.0000 0.0000 83.9924 -12.9834 12.8686 -15.4236 24.7329 -3.4012 0.0000 -0.0000 -6.6743 -16.5590 -3.6695 1.0902 7.1250 -0.0000 -0.0000 8.2309 -33.7223 2.2965
0.5698 17.8960 3.7486 -9.6903 -10.7853 3.3051 0.0000 0.0000 0.0000 1.4415 -8.2028 -30.8130 1.3315 7.3069 20.6278 -1.1594 20.1427 -15.8443 0.6245 -5.0570 -14.0713 0.0000 0.0000 0.0000 33.0781 0.3932 12.2069 -0.2965 -3.5013 9.6776 -0.1051 -8.3396 -13.7606 -0.1638 2.6078 -7.1887 6.5429 -1.8657 2.2875 5.0638 -2.2528 -0.1515 1.6417 -1.1643 -1.4888 6.5265 0.9088 -12.3472 -6.7786 1.3074 20.6365 -3.2479 0.4170 8.5317 -0.0000 -0.0000 0.0000 -85.4132 -1.0489 17.4209 14.6547 -23.6629 -3.0860 -0.0000 0.0000 -2.9907 13.0426 -2.8028 -0.6490 -7.1250 0.0000 -0.0000 -10.3425 27.0632 4.5741 -0.0000 -0.0000 0.0000 83.9604 -13.0235 12.8050 -15.3996 24.6999 -3.3912 0.0000 -0.0000 -6.6716 -16.5502 -3.6689 1.0894 7.1250 -0.0000 -0.0000 8.2379 -33.7213 2.2987
0.5891 17.8886 3.8207 -9.6549 -10.9594 3.3779 0.0000 0.0000 0.0000 1.3080 -8.2536 -30.5442 1.3202 7.2771 20.5391 -1.1580 20.1485 -15.8914 0.6285 -5.0729 -14.1166 0.0000 0.0000 0.0000 32.8946 0.4521 12.2945 -0.3103 -3.5814 9.9020 -0.1209 -8.2218 -13.8726 -0.1777 2.7155 -7.4877 6.5056 -1.8537 2.2491 5.0618 -2.2420 -0.1524 1.6582 -1.1583 -1.4666 6.5176 0.9109 -12.3426 -6.7810 1.3113 20.5946 -3.2459 0.4178 8.5169 0.0000 0.0000 0.0000 -85.5436 -0.9070 16.9971 14.3773 -23.2715 -2.9756 -0.0000 0.0000 -2.5600 13.0218 -2.7386 -0.6331 -7.1250 0.0000 -0.0000 -10.3639 27.1281 4.5677 0.0000 0.0000 0.0000 83.9390 -13.0501 12.7171 -15.3684 24.6568 -3.3781 0.0000 -0.0000 -6.6455 -16.5391 -3.6447 1.0815 7.1250 -0.0000 -0.0000 8.2442 -33.6960 2.3056
0.6089 17.8811 3.8948 -9.5975 -11.1367 3.4453 0.0000 0.0000 0.0000 1.1346 -8.2965 -30.2489 1.3085 7.2460 20.4463 -1.1537 20.1447 -15.9633 0.6282 -5.0717 -14.1131 0.0000 0.0000 0.0000 32.6903 0.5279 12.3806 -0.3263 -3.6715 10.1543 -0.1357 -8.1266 -13.9945 -0.1928 2.8276 -7.7990 6.4477 -1.8444 2.1955 5.0489 -2.2379 -0.1430 1.6744 -1.1551 -1.4249 6.5251 0.9190 -12.3552 -6.7850 1.3199 20.5717 -3.2472 0.4218 8.5122 -0.0000 -0.0000 0.0000 -85.6614 -0.7638 16.5617 14.1125 -22.8953 -2.8717 -0.0000 0.0000 -2.1511 12.9755 -2.6694 -0.6148 -7.1250 0.0000 -0.0000 -10.4049 27.1982 4.5689 -0.0000 -0.0000 0.0000 83.9278 -13.0642 12.6376 -15.3388 24.6160 -3.3658 0.0000 -0.0000 -6.6077 -16.5344 -3.6081 1.0703 7.1250 -0.0000 -0.0000 8.2438 -33.6581 2.3131
0.6292 17.8734 3.9708 -9.5485 -11.3205 3.5126 0.0000 0.0000 0.0000 0.9580 -8.3320 -29.9333 1.2980 7.2181 20.3633 -1.1483 20.1419 -16.0591 0.6249 -5.0586 -14.0757 0.0000 0.0000 0.0000 32.4976 0.6154 12.4739 -0.3430 -3.7632 10.4115 -0.1481 -8.0571 -14.1079 -0.2096 2.9478 -8.1333 6.4005 -1.8319 2.1349 5.0339 -2.2301 -0.1303 1.6819 -1.1500 -1.3763 6.5390 0.9313 -12.3670 -6.7893 1.3329 20.5393 -3.2490 0.4282 8.5046 -0.0000 0.0000 0.0000 -85.7710 -0.6114 16.1348 13.8557 -22.5280 -2.7726 -0.0000 0.0000 -1.7618 12.9563 -2.6677 -0.6135 -7.1250 0.0000 -0.0000 -10.4197 27.1999 4.5752 -0.0000 0.0000 0.0000 83.9262 -13.0815 12.5553 -15.3156 24.5839 -3.3561 0.0000 -0.0000 -6.5645 -16.5291 -3.5675 1.0579 7.1250 -0.0000 -0.0000 8.2434 -33.6158 2.3215
0.6502 17.8653 4.0485 -9.5158 -11.5084 3.5807 0.0000 0.0000 0.0000 0.7825 -8.3513 -29.6046 1.2899 7.1963 20.2981 -1.1446 20.1510 -16.1582 0.6187 -5.0338 -14.0050 0.0000 0.0000 0.0000 32.3232 0.7078 12.5744 -0.3601 -3.8550 10.6690 -0.1585 -8.0072 -14.2114 -0.2279 3.0725 -8.4807 6.3630 -1.8254 2.0798 5.0236 -2.2296 -0.1172 1.6896 -1.1487 -1.3307 6.5979 0.9592 -12.3554 -6.8312 1.3661 20.4723 -3.2682 0.4443 8.4829 0.0000 -0.0000 0.0000 -85.8732 -0.4526 15.6961 13.6002 -22.1603 -2.6754 -0.0000 0.0000 -1.3880 12.9388 -2.7126 -0.6229 -7.1250 0.0000 -0.0000 -10.4289 27.1547 4.5906 0.0000 -0.0000 0.0000 83.9186 -13.1039 12.5121 -15.2985 24.5603 -3.3490 0.0000 -0.0000 -6.5300 -16.5296 -3.5266 1.0458 7.1250 -0.0000 -0.0000 8.2384 -33.5739 2.3285
0.6720 17.8568 4.1285 -9.4981 -11.6883 3.6438 0.0000 0.0000 0.0000 0.6005 -8.3576 -29.2578 1.2842 7.1811 20.2531 -1.1407 20.1580 -16.2536 0.6130 -5.0110 -13.9400 0.0000 0.0000 0.0000 32.1633 0.7889 12.6859 -0.3774 -3.9456 10.9238 -0.1665 -7.9770 -14.3001 -0.2487 3.2090 -8.8612 6.3540 -1.8149 2.0183 5.0137 -2.2229 -0.1106 1.6815 -1.1446 -1.2892 6.6412 0.9838 -12.3282 -6.8662 1.3980 20.4129 -3.2827 0.4595 8.4607 -0.0000 -0.0000 0.0000 -85.9756 -0.2724 15.2778 13.3492 -21.7968 -2.5815 -0.0000 0.0000 -1.0240 12.9197 -2.7842 -0.6384 -7.1250 0.0000 -0.0000 -10.4373 27.0826 4.6125 -0.0000 -0.0000 0.0000 83.9078 -13.1831 12.5124 -15.3135 24.5810 -3.3553 0.0000 -0.0000 -6.5457 -16.5345 -3.5174 1.0434 7.1250 -0.0000 -0.0000 8.2333 -33.5644 2.3290
0.6946 17.8480 4.2101 -9.4968 -11.8616 3.7133 0.0000 0.0000 0.0000 0.4121 -8.3411 -28.9072 1.2807 7.1717 20.2249 -1.1364 20.1589 -16.3370 0.6068 -4.9859 -13.8684 0.0000 0.0000 0.0000 32.0165 0.8616 12.7961 -0.3951 -4.0357 11.1772 -0.1747 -7.9473 -14.3917 -0.2693 3.3385 -9.2226 6.3678 -1.8003 1.9583 5.0053 -2.2097 -0.1101 1.6625 -1.1375 -1.2555 6.6663 1.0002 -12.3040 -6.8866 1.4191 20.3597 -3.2904 0.4696 8.4402 0.0000 -0.0000 0.0000 -86.0749 -0.0827 14.8655 13.1038 -21.4391 -2.4911 -0.0000 0.0000 -0.6083 12.9219 -2.9295 -0.6718 -7.1250 0.0000 -0.0000 -10.4231 26.9360 4.6426 0.0000 -0.0000 0.0000 83.9005 -13.2739 12.4956 -15.3269 24.5996 -3.3609 0.0000 -0.0000 -6.5320 -16.5299 -3.4867 1.0340 7.1250 -0.0000 -0.0000 8.2336 -33.5327 2.3355
